<svg width="12" height="12" viewBox="0 0 12 12" fill="none" xmlns="http://www.w3.org/2000/svg">
<path d="M11.5896 1.58958C11.915 1.26414 11.915 0.736507 11.5896 0.41107C11.2641 0.0856329 10.7365 0.0856329 10.4111 0.41107L6.00033 4.82181L1.58958 0.41107C1.26414 0.0856329 0.736507 0.0856329 0.41107 0.41107C0.0856329 0.736507 0.0856329 1.26414 0.41107 1.58958L4.82181 6.00033L0.41107 10.4111C0.0856329 10.7365 0.0856329 11.2641 0.41107 11.5896C0.736507 11.915 1.26414 11.915 1.58958 11.5896L6.00033 7.17884L10.4111 11.5896C10.7365 11.915 11.2641 11.915 11.5896 11.5896C11.915 11.2641 11.915 10.7365 11.5896 10.4111L7.17884 6.00033L11.5896 1.58958Z" fill="#FEFEFE"/>
</svg>
