<svg width="14" height="16" viewBox="0 0 14 16" fill="none" xmlns="http://www.w3.org/2000/svg">
<path d="M9.66667 3.99967V3.46634C9.66667 2.7196 9.66667 2.34624 9.52134 2.06102C9.39351 1.81014 9.18954 1.60616 8.93865 1.47833C8.65344 1.33301 8.28007 1.33301 7.53333 1.33301H6.46667C5.71993 1.33301 5.34656 1.33301 5.06135 1.47833C4.81046 1.60616 4.60649 1.81014 4.47866 2.06102C4.33333 2.34624 4.33333 2.7196 4.33333 3.46634V3.99967M5.66667 7.66634V10.9997M8.33333 7.66634V10.9997M1 3.99967H13M11.6667 3.99967V11.4663C11.6667 12.5864 11.6667 13.1465 11.4487 13.5743C11.2569 13.9506 10.951 14.2566 10.5746 14.4484C10.1468 14.6663 9.58677 14.6663 8.46667 14.6663H5.53333C4.41323 14.6663 3.85318 14.6663 3.42535 14.4484C3.04903 14.2566 2.74307 13.9506 2.55132 13.5743C2.33333 13.1465 2.33333 12.5864 2.33333 11.4663V3.99967" stroke="#6C7275" stroke-width="1.5" stroke-linecap="round" stroke-linejoin="round"/>
</svg>
